<mxfile host="app.diagrams.net" modified="2022-05-03T12:43:33.654Z" agent="5.0 (Windows NT 10.0; Win64; x64) AppleWebKit/537.36 (KHTML, like Gecko) Chrome/100.0.4896.60 Safari/537.36" etag="RVMXc4Hv0SBg5w05f91J" version="17.5.0" type="github">
  <diagram id="CVyH3qtrHDVIkyLKIFSg" name="Page-1">
    <mxGraphModel dx="1422" dy="794" grid="1" gridSize="10" guides="1" tooltips="1" connect="1" arrows="1" fold="1" page="1" pageScale="1" pageWidth="827" pageHeight="1169" math="0" shadow="0">
      <root>
        <mxCell id="0" />
        <mxCell id="1" parent="0" />
        <mxCell id="RMOUsfpGzJU36BE7aTGA-8" value="" style="edgeStyle=orthogonalEdgeStyle;rounded=0;orthogonalLoop=1;jettySize=auto;html=1;" edge="1" parent="1" source="RMOUsfpGzJU36BE7aTGA-1" target="RMOUsfpGzJU36BE7aTGA-7">
          <mxGeometry relative="1" as="geometry" />
        </mxCell>
        <mxCell id="RMOUsfpGzJU36BE7aTGA-1" value="inicio" style="ellipse;whiteSpace=wrap;html=1;" vertex="1" parent="1">
          <mxGeometry x="100" y="180" width="120" height="80" as="geometry" />
        </mxCell>
        <mxCell id="RMOUsfpGzJU36BE7aTGA-10" value="" style="edgeStyle=orthogonalEdgeStyle;rounded=0;orthogonalLoop=1;jettySize=auto;html=1;" edge="1" parent="1" source="RMOUsfpGzJU36BE7aTGA-7" target="RMOUsfpGzJU36BE7aTGA-9">
          <mxGeometry relative="1" as="geometry" />
        </mxCell>
        <mxCell id="RMOUsfpGzJU36BE7aTGA-7" value="n1,n2,n3,n4" style="shape=parallelogram;perimeter=parallelogramPerimeter;whiteSpace=wrap;html=1;fixedSize=1;" vertex="1" parent="1">
          <mxGeometry x="100" y="350" width="120" height="60" as="geometry" />
        </mxCell>
        <mxCell id="RMOUsfpGzJU36BE7aTGA-14" value="" style="edgeStyle=orthogonalEdgeStyle;rounded=0;orthogonalLoop=1;jettySize=auto;html=1;" edge="1" parent="1" source="RMOUsfpGzJU36BE7aTGA-9" target="RMOUsfpGzJU36BE7aTGA-13">
          <mxGeometry relative="1" as="geometry" />
        </mxCell>
        <mxCell id="RMOUsfpGzJU36BE7aTGA-9" value="n1*n1,n2*n2,n3*n3 e n4*n4" style="whiteSpace=wrap;html=1;" vertex="1" parent="1">
          <mxGeometry x="310" y="350" width="120" height="60" as="geometry" />
        </mxCell>
        <mxCell id="RMOUsfpGzJU36BE7aTGA-16" value="" style="edgeStyle=orthogonalEdgeStyle;rounded=0;orthogonalLoop=1;jettySize=auto;html=1;" edge="1" parent="1" source="RMOUsfpGzJU36BE7aTGA-13" target="RMOUsfpGzJU36BE7aTGA-15">
          <mxGeometry relative="1" as="geometry" />
        </mxCell>
        <mxCell id="RMOUsfpGzJU36BE7aTGA-13" value="valorsoma" style="shape=document;whiteSpace=wrap;html=1;boundedLbl=1;" vertex="1" parent="1">
          <mxGeometry x="310" y="200" width="120" height="80" as="geometry" />
        </mxCell>
        <mxCell id="RMOUsfpGzJU36BE7aTGA-15" value="fim" style="ellipse;whiteSpace=wrap;html=1;" vertex="1" parent="1">
          <mxGeometry x="310" y="50" width="120" height="60" as="geometry" />
        </mxCell>
        <mxCell id="RMOUsfpGzJU36BE7aTGA-17" style="edgeStyle=orthogonalEdgeStyle;rounded=0;orthogonalLoop=1;jettySize=auto;html=1;exitX=1;exitY=1;exitDx=0;exitDy=0;entryX=1;entryY=0.75;entryDx=0;entryDy=0;" edge="1" parent="1" source="RMOUsfpGzJU36BE7aTGA-7" target="RMOUsfpGzJU36BE7aTGA-7">
          <mxGeometry relative="1" as="geometry" />
        </mxCell>
      </root>
    </mxGraphModel>
  </diagram>
</mxfile>
